<mxfile host="app.diagrams.net" agent="Mozilla/5.0 (Windows NT 10.0; Win64; x64) AppleWebKit/537.36 (KHTML, like Gecko) Chrome/127.0.0.0 Safari/537.36 Edg/127.0.0.0" version="24.7.6">
  <diagram name="Página-1" id="8e6YYSq6ryYe6m_oUZq7">
    <mxGraphModel dx="1434" dy="754" grid="1" gridSize="10" guides="1" tooltips="1" connect="1" arrows="1" fold="1" page="1" pageScale="1" pageWidth="1169" pageHeight="827" math="0" shadow="0">
      <root>
        <mxCell id="0" />
        <mxCell id="1" parent="0" />
        <mxCell id="WhdLHiRGjuyzuCgG3gOH-2" value="" style="image;html=1;image=img/lib/clip_art/computers/Laptop_128x128.png" vertex="1" parent="1">
          <mxGeometry x="192.5" y="115" width="80" height="80" as="geometry" />
        </mxCell>
        <mxCell id="WhdLHiRGjuyzuCgG3gOH-3" value="" style="image;html=1;image=img/lib/clip_art/people/Worker_Woman_Black_128x128.png" vertex="1" parent="1">
          <mxGeometry x="30" y="182.5" width="80" height="80" as="geometry" />
        </mxCell>
        <mxCell id="WhdLHiRGjuyzuCgG3gOH-4" value="" style="endArrow=classic;html=1;rounded=0;" edge="1" parent="1" source="WhdLHiRGjuyzuCgG3gOH-3" target="WhdLHiRGjuyzuCgG3gOH-2">
          <mxGeometry width="50" height="50" relative="1" as="geometry">
            <mxPoint x="110" y="410" as="sourcePoint" />
            <mxPoint x="160" y="360" as="targetPoint" />
          </mxGeometry>
        </mxCell>
        <mxCell id="WhdLHiRGjuyzuCgG3gOH-5" value="" style="sketch=0;pointerEvents=1;shadow=0;dashed=0;html=1;strokeColor=none;fillColor=#505050;labelPosition=center;verticalLabelPosition=bottom;outlineConnect=0;verticalAlign=top;align=center;shape=mxgraph.office.clouds.private_cloud;" vertex="1" parent="1">
          <mxGeometry x="407" y="195" width="94" height="55" as="geometry" />
        </mxCell>
        <mxCell id="WhdLHiRGjuyzuCgG3gOH-11" value="" style="image;html=1;image=img/lib/clip_art/computers/Network_2_128x128.png" vertex="1" parent="1">
          <mxGeometry x="416" y="360" width="76" height="80" as="geometry" />
        </mxCell>
        <mxCell id="WhdLHiRGjuyzuCgG3gOH-14" value="" style="endArrow=classic;startArrow=classic;html=1;rounded=0;exitX=1;exitY=0.5;exitDx=0;exitDy=0;" edge="1" parent="1" source="WhdLHiRGjuyzuCgG3gOH-2" target="WhdLHiRGjuyzuCgG3gOH-5">
          <mxGeometry width="50" height="50" relative="1" as="geometry">
            <mxPoint x="260" y="290" as="sourcePoint" />
            <mxPoint x="310" y="240" as="targetPoint" />
          </mxGeometry>
        </mxCell>
        <mxCell id="WhdLHiRGjuyzuCgG3gOH-15" value="" style="endArrow=classic;startArrow=classic;html=1;rounded=0;" edge="1" parent="1" source="WhdLHiRGjuyzuCgG3gOH-11" target="WhdLHiRGjuyzuCgG3gOH-5">
          <mxGeometry width="50" height="50" relative="1" as="geometry">
            <mxPoint x="414" y="240" as="sourcePoint" />
            <mxPoint x="464" y="190" as="targetPoint" />
          </mxGeometry>
        </mxCell>
        <mxCell id="WhdLHiRGjuyzuCgG3gOH-16" value="" style="image;html=1;image=img/lib/clip_art/computers/Database_128x128.png" vertex="1" parent="1">
          <mxGeometry x="603" y="372" width="58" height="56" as="geometry" />
        </mxCell>
        <mxCell id="WhdLHiRGjuyzuCgG3gOH-17" value="" style="sketch=0;pointerEvents=1;shadow=0;dashed=0;html=1;strokeColor=none;fillColor=#505050;labelPosition=center;verticalLabelPosition=bottom;outlineConnect=0;verticalAlign=top;align=center;shape=mxgraph.office.clouds.private_cloud;" vertex="1" parent="1">
          <mxGeometry x="585" y="190" width="94" height="55" as="geometry" />
        </mxCell>
        <mxCell id="WhdLHiRGjuyzuCgG3gOH-18" value="" style="endArrow=classic;startArrow=classic;html=1;rounded=0;exitX=1;exitY=0.25;exitDx=0;exitDy=0;" edge="1" parent="1" source="WhdLHiRGjuyzuCgG3gOH-11" target="WhdLHiRGjuyzuCgG3gOH-17">
          <mxGeometry width="50" height="50" relative="1" as="geometry">
            <mxPoint x="480" y="480" as="sourcePoint" />
            <mxPoint x="530" y="430" as="targetPoint" />
          </mxGeometry>
        </mxCell>
        <mxCell id="WhdLHiRGjuyzuCgG3gOH-20" value="" style="endArrow=classic;startArrow=classic;html=1;rounded=0;" edge="1" parent="1" source="WhdLHiRGjuyzuCgG3gOH-16" target="WhdLHiRGjuyzuCgG3gOH-17">
          <mxGeometry width="50" height="50" relative="1" as="geometry">
            <mxPoint x="560" y="479" as="sourcePoint" />
            <mxPoint x="610" y="429" as="targetPoint" />
          </mxGeometry>
        </mxCell>
        <mxCell id="WhdLHiRGjuyzuCgG3gOH-22" value="usuario" style="text;html=1;align=center;verticalAlign=middle;whiteSpace=wrap;rounded=0;" vertex="1" parent="1">
          <mxGeometry x="40" y="262.5" width="60" height="30" as="geometry" />
        </mxCell>
        <mxCell id="WhdLHiRGjuyzuCgG3gOH-23" value="acessa a&amp;nbsp; aplicacao na nuvem" style="text;html=1;align=center;verticalAlign=middle;whiteSpace=wrap;rounded=0;" vertex="1" parent="1">
          <mxGeometry x="137.5" y="220" width="190" height="20" as="geometry" />
        </mxCell>
        <mxCell id="WhdLHiRGjuyzuCgG3gOH-24" value="servidor da aplicação" style="text;html=1;align=center;verticalAlign=middle;whiteSpace=wrap;rounded=0;" vertex="1" parent="1">
          <mxGeometry x="387.5" y="165" width="133" height="30" as="geometry" />
        </mxCell>
        <mxCell id="WhdLHiRGjuyzuCgG3gOH-25" value="Aplicação" style="text;html=1;align=center;verticalAlign=middle;whiteSpace=wrap;rounded=0;" vertex="1" parent="1">
          <mxGeometry x="424" y="440" width="60" height="30" as="geometry" />
        </mxCell>
        <mxCell id="WhdLHiRGjuyzuCgG3gOH-26" value="banco de dados" style="text;html=1;align=center;verticalAlign=middle;whiteSpace=wrap;rounded=0;" vertex="1" parent="1">
          <mxGeometry x="573.5" y="428" width="117" height="32" as="geometry" />
        </mxCell>
        <mxCell id="WhdLHiRGjuyzuCgG3gOH-27" value="servidor de banco de dados" style="text;html=1;align=center;verticalAlign=middle;whiteSpace=wrap;rounded=0;" vertex="1" parent="1">
          <mxGeometry x="548.5" y="165" width="167" height="30" as="geometry" />
        </mxCell>
        <mxCell id="WhdLHiRGjuyzuCgG3gOH-29" value="" style="verticalLabelPosition=bottom;html=1;verticalAlign=top;align=center;strokeColor=none;fillColor=#00BEF2;shape=mxgraph.azure.mobile;pointerEvents=1;" vertex="1" parent="1">
          <mxGeometry x="192.5" y="292.5" width="35" height="50" as="geometry" />
        </mxCell>
        <mxCell id="WhdLHiRGjuyzuCgG3gOH-30" value="" style="endArrow=classic;html=1;rounded=0;entryX=-0.057;entryY=0.71;entryDx=0;entryDy=0;entryPerimeter=0;" edge="1" parent="1" source="WhdLHiRGjuyzuCgG3gOH-3" target="WhdLHiRGjuyzuCgG3gOH-29">
          <mxGeometry width="50" height="50" relative="1" as="geometry">
            <mxPoint x="110" y="360" as="sourcePoint" />
            <mxPoint x="160" y="310" as="targetPoint" />
          </mxGeometry>
        </mxCell>
        <mxCell id="WhdLHiRGjuyzuCgG3gOH-31" value="" style="endArrow=classic;startArrow=classic;html=1;rounded=0;entryX=1;entryY=0.5;entryDx=0;entryDy=0;entryPerimeter=0;" edge="1" parent="1" source="WhdLHiRGjuyzuCgG3gOH-5" target="WhdLHiRGjuyzuCgG3gOH-29">
          <mxGeometry width="50" height="50" relative="1" as="geometry">
            <mxPoint x="110" y="330" as="sourcePoint" />
            <mxPoint x="160" y="280" as="targetPoint" />
          </mxGeometry>
        </mxCell>
        <mxCell id="WhdLHiRGjuyzuCgG3gOH-32" value="&lt;font color=&quot;#ffffff&quot;&gt;&lt;b&gt;render.com&lt;/b&gt;&lt;/font&gt;" style="text;html=1;align=center;verticalAlign=middle;whiteSpace=wrap;rounded=0;" vertex="1" parent="1">
          <mxGeometry x="424" y="215" width="60" height="30" as="geometry" />
        </mxCell>
        <mxCell id="WhdLHiRGjuyzuCgG3gOH-33" value="&lt;font color=&quot;#ffffff&quot;&gt;&lt;b&gt;vercel&lt;/b&gt;&lt;/font&gt;" style="text;html=1;align=center;verticalAlign=middle;whiteSpace=wrap;rounded=0;" vertex="1" parent="1">
          <mxGeometry x="603" y="210" width="60" height="30" as="geometry" />
        </mxCell>
      </root>
    </mxGraphModel>
  </diagram>
</mxfile>
